<?xml version="1.0" standalone="no"?>
<!DOCTYPE svg PUBLIC "-//W3C//DTD SVG 20010904//EN"
 "http://www.w3.org/TR/2001/REC-SVG-20010904/DTD/svg10.dtd">
<svg version="1.0" xmlns="http://www.w3.org/2000/svg"
 width="512.000000pt" height="512.000000pt" viewBox="0 0 512.000000 512.000000"
 preserveAspectRatio="xMidYMid meet">
<metadata>
Created by potrace 1.14, written by Peter Selinger 2001-2017
</metadata>
<g transform="translate(0.000000,512.000000) scale(0.100000,-0.100000)"
fill="#000000" stroke="none">
<path d="M0 2560 l0 -2560 2560 0 2560 0 0 2560 0 2560 -2560 0 -2560 0 0
-2560z m4097 2169 c93 -35 141 -162 122 -325 -10 -92 -36 -168 -115 -335 -77
-163 -101 -260 -87 -350 7 -45 7 -59 -3 -63 -8 -3 -79 -11 -159 -18 -167 -14
-157 -5 -129 -125 85 -365 78 -732 -20 -1133 -14 -56 -26 -143 -30 -211 -7
-135 -26 -255 -62 -389 -29 -107 -103 -304 -138 -365 -12 -22 -33 -66 -45 -97
-28 -69 -124 -228 -177 -293 -227 -274 -570 -328 -982 -154 -297 126 -595 360
-763 602 -100 143 -128 207 -163 379 -4 17 -28 42 -74 77 -87 64 -235 217
-290 300 -34 51 -42 72 -42 108 0 72 38 126 102 144 79 21 155 -22 246 -140
139 -178 326 -314 585 -425 209 -89 361 -121 541 -113 138 6 217 26 336 88
186 96 411 331 513 535 74 148 156 429 172 596 7 65 6 69 -29 127 -48 78 -162
225 -215 276 -22 21 -41 45 -41 52 0 19 -46 16 -211 -11 -187 -32 -402 -63
-558 -82 -132 -15 -157 -13 -338 32 -96 23 -203 10 -280 -36 -19 -11 -41 -20
-49 -20 -8 0 -14 -4 -14 -10 0 -5 -9 -10 -19 -10 -11 0 -23 -4 -26 -10 -3 -5
-15 -10 -26 -10 -10 0 -19 -4 -19 -8 0 -4 -10 -9 -22 -9 -13 -1 -24 -6 -26
-11 -1 -5 -14 -7 -29 -4 -18 3 -24 1 -19 -7 5 -7 -1 -11 -16 -11 -38 0 -71
-12 -58 -20 8 -5 -3 -10 -27 -14 -53 -9 -115 -31 -108 -38 4 -3 -17 -11 -45
-18 -59 -14 -70 -8 -101 53 -34 66 -48 173 -48 359 0 225 -33 408 -74 408 -8
0 -50 -7 -92 -16 l-78 -16 -24 25 c-56 55 -32 190 39 221 49 22 581 112 1388
236 561 86 868 138 1025 175 211 50 346 74 514 95 174 21 250 24 288 9z"/>
</g>
</svg>
